<svg width="14" height="17" viewBox="0 0 14 17" fill="none" xmlns="http://www.w3.org/2000/svg">
<path d="M7.53334 1.06667H7.03334V1.56667V2.7605V3.22336L7.49482 3.25902C8.58042 3.3429 9.58878 3.70065 10.4516 4.26354L10.8515 4.52438L11.1305 4.13701C11.1359 4.12955 11.142 4.12228 11.149 4.11528C11.1491 4.1152 11.1491 4.11513 11.1492 4.11505L12.0021 3.26217C12.0021 3.26216 12.0021 3.26216 12.0021 3.26215C12.0672 3.19706 12.1727 3.19706 12.2378 3.26216C12.3029 3.32725 12.3029 3.43275 12.2378 3.49783L12.2378 3.49784L11.4113 4.32438L11.0532 4.68248L11.4158 5.03598C12.5953 6.18568 13.3267 7.7903 13.3267 9.56664C13.3267 13.0608 10.4941 15.8933 7.00001 15.8933C3.50588 15.8933 0.67334 13.0608 0.67334 9.56664C0.67334 6.23909 3.24259 3.51113 6.5052 3.25901L6.96667 3.22335V2.7605V1.56667V1.06667H6.46667H5.40001C5.38159 1.06667 5.36667 1.05175 5.36667 1.03333C5.36667 1.01492 5.38159 1 5.40001 1H7.00001H8.60001C8.61841 1 8.63334 1.01493 8.63334 1.03333C8.63334 1.05174 8.61841 1.06667 8.60001 1.06667H7.53334ZM7.00001 3.30665C3.5427 3.30665 0.740007 6.10934 0.740007 9.56664C0.740007 13.0239 3.5427 15.8267 7.00001 15.8267C10.4573 15.8267 13.26 13.0239 13.26 9.56664C13.26 6.10934 10.4573 3.30665 7.00001 3.30665ZM7.00001 5.26667C7.01841 5.26667 7.03334 5.28159 7.03334 5.3V10.6333C7.03334 10.6517 7.01841 10.6667 7.00001 10.6667C6.98159 10.6667 6.96667 10.6517 6.96667 10.6333V5.3C6.96667 5.28159 6.9816 5.26667 7.00001 5.26667Z" stroke="#5A5555"/>
</svg>
